<svg width="146" height="166" viewBox="0 0 146 166" fill="none" xmlns="http://www.w3.org/2000/svg">
<path d="M13.7632 14.1888C8.74353 19.3978 6.44769 26.0414 5.33912 34.6008C4.24991 43.0107 4.24995 53.8158 4.25 67.7195L4.25 68V98L4.25 98.2805C4.24995 112.184 4.24991 122.989 5.33912 131.399C6.44761 139.958 8.7432 146.601 13.7621 151.81C18.7974 157.043 25.2516 159.455 33.5607 160.615C41.6865 161.75 52.1146 161.75 65.4783 161.75H65.7778H80.2222H80.5217C93.8854 161.75 104.314 161.75 112.439 160.615C120.748 159.455 127.202 157.044 132.237 151.811L13.7632 14.1888ZM33.5607 5.3848C25.2528 6.54516 18.7993 8.95591 13.7644 14.1877L132.238 151.81C137.257 146.601 139.552 139.958 140.661 131.399C141.75 122.989 141.75 112.184 141.75 98.2805V98V68V67.7195C141.75 53.8158 141.75 43.0107 140.661 34.6008C139.552 26.042 137.257 19.3988 132.238 14.19C127.203 8.95662 120.748 6.54533 112.439 5.3848C104.314 4.24989 93.8855 4.24994 80.5219 4.25L80.2222 4.25H65.7778L65.4781 4.25C52.1145 4.24994 41.6864 4.24989 33.5607 5.3848Z" stroke="white" stroke-width="7.5"/>
<path d="M101.889 64.25H44.1113V68V71.75H101.889V68V64.25ZM80.2224 94.25H44.1113V98V101.75H80.2224V98V94.25Z" stroke="white" stroke-width="7.5" stroke-linecap="round"/>
</svg>
