<svg width="163" height="163" viewBox="0 0 163 163" fill="none" xmlns="http://www.w3.org/2000/svg">
<path d="M72.5417 108.375H126.292V126.292H72.5417V108.375ZM54.625 36.7083H36.7083V54.625H54.625V36.7083ZM72.5417 90.4583H126.292V72.5417H72.5417V90.4583ZM72.5417 54.625H126.292V36.7083H72.5417V54.625ZM54.625 72.5417H36.7083V90.4583H54.625V72.5417ZM162.125 18.7917V144.208C162.125 154.062 154.062 162.125 144.208 162.125H18.7917C8.9375 162.125 0.875 154.062 0.875 144.208V18.7917C0.875 8.9375 8.9375 0.875 18.7917 0.875H144.208C154.062 0.875 162.125 8.9375 162.125 18.7917ZM144.208 18.7917H18.7917V144.208H144.208V18.7917ZM54.625 108.375H36.7083V126.292H54.625V108.375Z" fill="white"/>
</svg>
