<svg width="25" height="29" viewBox="0 0 25 29" fill="none" xmlns="http://www.w3.org/2000/svg">
<path d="M25 27.1587V11.5079C25 11.2221 24.9435 10.9402 24.835 10.6845C24.7266 10.4288 24.5691 10.2064 24.375 10.0349L13.4375 0.368254C13.167 0.129216 12.8381 0 12.5 0C12.1619 0 11.833 0.129216 11.5625 0.368254L0.625 10.0349C0.430944 10.2064 0.273438 10.4288 0.164957 10.6845C0.0564765 10.9402 0 11.2221 0 11.5079V27.1587C0 27.6471 0.16462 28.1154 0.457646 28.4607C0.750672 28.806 1.1481 29 1.5625 29H7.8125C8.2269 29 8.62433 28.806 8.91735 28.4607C9.21038 28.1154 9.375 27.6471 9.375 27.1587V21.6349C9.375 21.1466 9.53962 20.6783 9.83265 20.3329C10.1257 19.9876 10.5231 19.7937 10.9375 19.7937H14.0625C14.4769 19.7937 14.8743 19.9876 15.1674 20.3329C15.4604 20.6783 15.625 21.1466 15.625 21.6349V27.1587C15.625 27.6471 15.7896 28.1154 16.0826 28.4607C16.3757 28.806 16.7731 29 17.1875 29H23.4375C23.8519 29 24.2493 28.806 24.5424 28.4607C24.8354 28.1154 25 27.6471 25 27.1587Z" fill="white"/>
</svg>
