<svg width="27" height="25" viewBox="0 0 27 25" fill="none" xmlns="http://www.w3.org/2000/svg">
<path d="M24.5294 12.5H10.5588M21.5882 16.8125L26 12.5L21.5882 8.1875M14.2353 5.3125V3.875C14.2353 3.1125 13.9254 2.38123 13.3738 1.84207C12.8223 1.3029 12.0742 1 11.2941 1H3.94118C3.16113 1 2.41303 1.3029 1.86145 1.84207C1.30987 2.38123 1 3.1125 1 3.875V21.125C1 21.8875 1.30987 22.6188 1.86145 23.1579C2.41303 23.6971 3.16113 24 3.94118 24H11.2941C12.0742 24 12.8223 23.6971 13.3738 23.1579C13.9254 22.6188 14.2353 21.8875 14.2353 21.125V19.6875" stroke="white" stroke-width="2" stroke-linecap="round" stroke-linejoin="round"/>
</svg>
