<svg width="50" height="50" viewBox="0 0 50 50" fill="none" xmlns="http://www.w3.org/2000/svg">
<path fill-rule="evenodd" clip-rule="evenodd" d="M3.57143 3.57143H25V16.0714L26.7857 17.8571H39.2857V21.4286H42.8571V13.5714L42.3214 12.2857L30.6071 0.5L29.3571 0H1.78571L0 1.78571V48.2143L1.78571 50H14.2857V46.4286H3.57143V3.57143ZM28.5714 3.57143L39.2857 14.2857H28.5714V3.57143ZM48.2143 25H19.6429L17.8571 26.7857V48.2143L19.6429 50H48.2143L50 48.2143V26.7857L48.2143 25ZM46.4286 28.5714V42.8571L40.6071 37.1429H38.0714L33.9286 41.3214L26.3214 33.7143H23.7857L21.4286 36.0714V28.5714H46.4286ZM36.4286 43.8214L39.3214 40.9286L44.8214 46.4286H39.0357L36.4286 43.8214ZM21.4286 46.4286V41.1071L25 37.5357L34 46.4286H21.4286ZM41.0714 33.9286C41.545 33.9286 41.9992 33.7404 42.3341 33.4055C42.669 33.0707 42.8571 32.6165 42.8571 32.1429C42.8571 31.6693 42.669 31.2151 42.3341 30.8802C41.9992 30.5453 41.545 30.3571 41.0714 30.3571C40.5978 30.3571 40.1436 30.5453 39.8087 30.8802C39.4739 31.2151 39.2857 31.6693 39.2857 32.1429C39.2857 32.6165 39.4739 33.0707 39.8087 33.4055C40.1436 33.7404 40.5978 33.9286 41.0714 33.9286Z" fill="#1F8DE3" fill-opacity="0.7"/>
</svg>
