<svg width="27" height="27" viewBox="0 0 27 27" fill="none" xmlns="http://www.w3.org/2000/svg">
<path d="M24.7959 14.051V25.0714C24.7959 25.5829 24.5927 26.0735 24.2311 26.4351C23.8694 26.7968 23.3788 27 22.8673 27H1.92857C1.41708 27 0.926543 26.7968 0.564866 26.4351C0.203188 26.0735 0 25.5829 0 25.0714V4.13265C0 3.62116 0.203188 3.13062 0.564866 2.76895C0.926543 2.40727 1.41708 2.20408 1.92857 2.20408H12.949C13.1682 2.20408 13.3784 2.29116 13.5334 2.44617C13.6884 2.60117 13.7755 2.8114 13.7755 3.03061C13.7755 3.24982 13.6884 3.46005 13.5334 3.61506C13.3784 3.77006 13.1682 3.85714 12.949 3.85714H1.92857C1.8555 3.85714 1.78542 3.88617 1.73376 3.93784C1.68209 3.98951 1.65306 4.05958 1.65306 4.13265V25.0714C1.65306 25.1445 1.68209 25.2146 1.73376 25.2662C1.78542 25.3179 1.8555 25.3469 1.92857 25.3469H22.8673C22.9404 25.3469 23.0105 25.3179 23.0622 25.2662C23.1138 25.2146 23.1429 25.1445 23.1429 25.0714V14.051C23.1429 13.8318 23.2299 13.6216 23.3849 13.4666C23.5399 13.3116 23.7502 13.2245 23.9694 13.2245C24.1886 13.2245 24.3988 13.3116 24.5538 13.4666C24.7088 13.6216 24.7959 13.8318 24.7959 14.051ZM27 4.68367C27 5.61002 26.7253 6.51556 26.2107 7.28578C25.696 8.05601 24.9645 8.65633 24.1087 9.01082C23.2529 9.36532 22.3111 9.45807 21.4026 9.27735C20.494 9.09663 19.6595 8.65055 19.0045 7.99553C18.3494 7.34051 17.9034 6.50596 17.7226 5.59741C17.5419 4.68887 17.6347 3.74714 17.9892 2.89131C18.3437 2.03548 18.944 1.30399 19.7142 0.789341C20.4844 0.274693 21.39 0 22.3163 0C23.5585 0 24.7498 0.493457 25.6282 1.37182C26.5065 2.25018 27 3.44149 27 4.68367ZM25.3469 4.68367C25.3469 4.08427 25.1692 3.49834 24.8362 2.99996C24.5032 2.50157 24.0299 2.11313 23.4761 1.88375C22.9223 1.65437 22.313 1.59436 21.7251 1.71129C21.1372 1.82823 20.5972 2.11687 20.1734 2.54071C19.7495 2.96455 19.4609 3.50455 19.3439 4.09243C19.227 4.68031 19.287 5.28967 19.5164 5.84344C19.7458 6.39721 20.1342 6.87053 20.6326 7.20353C21.131 7.53654 21.7169 7.71429 22.3163 7.71429C23.1201 7.71429 23.8909 7.39499 24.4593 6.82664C25.0276 6.25829 25.3469 5.48744 25.3469 4.68367Z" fill="white"/>
</svg>
