<svg width="32" height="32" viewBox="0 0 50 50" fill="none" xmlns="http://www.w3.org/2000/svg">
<path fill-rule="evenodd" clip-rule="evenodd" d="M34.092 18.1817C34.092 20.5928 33.1342 22.9051 31.4293 24.61C29.7244 26.3148 27.4121 27.2726 25.0011 27.2726C22.59 27.2726 20.2777 26.3148 18.5728 24.61C16.8679 22.9051 15.9102 20.5928 15.9102 18.1817C15.9102 15.7707 16.8679 13.4584 18.5728 11.7535C20.2777 10.0486 22.59 9.09082 25.0011 9.09082C27.4121 9.09082 29.7244 10.0486 31.4293 11.7535C33.1342 13.4584 34.092 15.7707 34.092 18.1817ZM29.5465 18.1817C29.5465 19.3873 29.0676 20.5434 28.2152 21.3959C27.3627 22.2483 26.2066 22.7272 25.0011 22.7272C23.7955 22.7272 22.6394 22.2483 21.7869 21.3959C20.9345 20.5434 20.4556 19.3873 20.4556 18.1817C20.4556 16.9762 20.9345 15.82 21.7869 14.9676C22.6394 14.1152 23.7955 13.6363 25.0011 13.6363C26.2066 13.6363 27.3627 14.1152 28.2152 14.9676C29.0676 15.82 29.5465 16.9762 29.5465 18.1817Z" fill="white"/>
<path fill-rule="evenodd" clip-rule="evenodd" d="M25 0C11.1932 0 0 11.1932 0 25C0 38.8068 11.1932 50 25 50C38.8068 50 50 38.8068 50 25C50 11.1932 38.8068 0 25 0ZM4.54545 25C4.54545 29.75 6.16591 34.1227 8.88182 37.5955C10.7892 35.0907 13.2498 33.0608 16.0714 31.6643C18.8931 30.2679 21.9994 29.5427 25.1477 29.5455C28.2553 29.5425 31.3225 30.2489 34.1158 31.6109C36.909 32.9728 39.3545 34.9544 41.2659 37.4045C43.2351 34.8218 44.561 31.8073 45.1339 28.6104C45.7067 25.4136 45.5101 22.1262 44.5602 19.0204C43.6104 15.9146 41.9346 13.0797 39.6716 10.7501C37.4085 8.42052 34.6233 6.66332 31.5463 5.62388C28.4693 4.58445 25.1891 4.29266 21.977 4.77267C18.7648 5.25267 15.7132 6.49066 13.0745 8.38421C10.4358 10.2778 8.28593 12.7724 6.80279 15.6618C5.31965 18.5512 4.54587 21.7522 4.54545 25ZM25 45.4545C20.3044 45.4616 15.7506 43.8462 12.1091 40.8818C13.5748 38.7835 15.5258 37.0703 17.7959 35.8879C20.066 34.7056 22.5882 34.0891 25.1477 34.0909C27.6754 34.0889 30.167 34.6899 32.4157 35.8441C34.6645 36.9984 36.6054 38.6724 38.0773 40.7273C34.4075 43.788 29.7786 45.4613 25 45.4545Z" fill="white"/>
</svg>
