<svg width="100" height="100" viewBox="0 0 100 100" fill="none" xmlns="http://www.w3.org/2000/svg">
<path fill-rule="evenodd" clip-rule="evenodd" d="M68.182 36.3635C68.182 41.1856 66.2664 45.8102 62.8567 49.2199C59.4469 52.6297 54.8223 54.5453 50.0002 54.5453C45.1781 54.5453 40.5534 52.6297 37.1437 49.2199C33.7339 45.8102 31.8184 41.1856 31.8184 36.3635C31.8184 31.5413 33.7339 26.9167 37.1437 23.507C40.5534 20.0972 45.1781 18.1816 50.0002 18.1816C54.8223 18.1816 59.4469 20.0972 62.8567 23.507C66.2664 26.9167 68.182 31.5413 68.182 36.3635ZM59.0911 36.3635C59.0911 38.7745 58.1333 41.0868 56.4284 42.7917C54.7235 44.4966 52.4112 45.4544 50.0002 45.4544C47.5891 45.4544 45.2768 44.4966 43.5719 42.7917C41.8671 41.0868 40.9093 38.7745 40.9093 36.3635C40.9093 33.9524 41.8671 31.6401 43.5719 29.9352C45.2768 28.2303 47.5891 27.2725 50.0002 27.2725C52.4112 27.2725 54.7235 28.2303 56.4284 29.9352C58.1333 31.6401 59.0911 33.9524 59.0911 36.3635Z" fill="#E3BC26"/>
<path fill-rule="evenodd" clip-rule="evenodd" d="M50 0C22.3864 0 0 22.3864 0 50C0 77.6136 22.3864 100 50 100C77.6136 100 100 77.6136 100 50C100 22.3864 77.6136 0 50 0ZM9.09091 50C9.09091 59.5 12.3318 68.2455 17.7636 75.1909C21.5783 70.1814 26.4995 66.1216 32.1429 63.3287C37.7862 60.5358 43.9988 59.0854 50.2955 59.0909C56.5106 59.085 62.6451 60.4978 68.2315 63.2217C73.8179 65.9456 78.7089 69.9087 82.5318 74.8091C86.4702 69.6436 89.122 63.6146 90.2677 57.2209C91.4134 50.8271 91.0201 44.2524 89.1204 38.0408C87.2207 31.8292 83.8692 26.1593 79.3431 21.5002C74.8171 16.841 69.2466 13.3266 63.0926 11.2478C56.9387 9.1689 50.3782 8.58533 43.9539 9.54533C37.5296 10.5053 31.4263 12.9813 26.149 16.7684C20.8716 20.5555 16.5719 25.5449 13.6056 31.3236C10.6393 37.1024 9.09173 43.5044 9.09091 50ZM50 90.9091C40.6089 90.9232 31.5012 87.6925 24.2182 81.7636C27.1497 77.567 31.0515 74.1405 35.5918 71.7758C40.132 69.4111 45.1763 68.1782 50.2955 68.1818C55.3507 68.1778 60.334 69.3799 64.8315 71.6883C69.3289 73.9967 73.2108 77.3448 76.1545 81.4545C68.815 87.5759 59.5572 90.9225 50 90.9091Z" fill="#E3BC26"/>
</svg>
